<?xml version="1.0"?>
<svg xmlns="http://www.w3.org/2000/svg" xmlns:xlink="http://www.w3.org/1999/xlink" version="1.1" id="Capa_1" x="0px" y="0px" viewBox="0 0 512.047 512.047" style="enable-background:new 0 0 512.047 512.047;" xml:space="preserve" width="512px" height="512px"><g><g transform="translate(0 -1)">
	<g>
		<g>
			<path d="M187.757,60.781c2.27,0.023,4.454-0.869,6.059-2.474c1.605-1.605,2.497-3.789,2.474-6.059     c0.029-1.119-0.204-2.23-0.683-3.243c-0.433-1.034-1.039-1.986-1.792-2.816c-3.422-3.158-8.695-3.158-12.117,0     c-0.753,0.83-1.359,1.782-1.792,2.816c-0.437,1.026-0.669,2.128-0.683,3.243c-0.023,2.27,0.869,4.454,2.474,6.059     S185.487,60.804,187.757,60.781z" data-original="#000000" class="active-path" data-old_color="#000000" fill="#9A9B9F"/>
			<path d="M366.957,453.314c-4.713,0-8.533,3.821-8.533,8.533v17.067c0,9.426-7.641,17.067-17.067,17.067h-307.2     c-9.426,0-17.067-7.641-17.067-17.067V103.447c0-9.426,7.641-17.067,17.067-17.067h51.2v17.067H51.224     c-9.426,0-17.067,7.641-17.067,17.067v341.333c0,9.426,7.641,17.067,17.067,17.067H324.29c9.426,0,17.067-7.641,17.067-17.067     v-8.533c0-4.713-3.821-8.533-8.533-8.533c-4.713,0-8.533,3.821-8.533,8.533v8.533H51.224V120.514h35.703     c3.603,10.192,13.22,17.022,24.03,17.067h153.6c10.81-0.045,20.427-6.875,24.03-17.067h35.703v8.533     c0,4.713,3.821,8.533,8.533,8.533c4.713,0,8.533-3.82,8.533-8.533v-8.533c0-9.426-7.641-17.067-17.067-17.067h-34.133V86.381     h51.2c9.426,0,17.067,7.641,17.067,17.067v17.067c0,4.713,3.82,8.533,8.533,8.533s8.533-3.82,8.533-8.533v-17.067     c0-18.851-15.282-34.133-34.133-34.133h-52.77c-3.603-10.192-13.22-17.022-24.03-17.067h-17.672     C242.663,22.837,217.469,1,187.757,1s-54.906,21.837-59.127,51.247h-17.673c-10.81,0.045-20.427,6.875-24.03,17.067h-52.77     c-18.851,0-34.133,15.282-34.133,34.133v375.467c0,18.851,15.282,34.133,34.133,34.133h307.2     c18.851,0,34.133-15.282,34.133-34.133v-17.067C375.49,457.134,371.67,453.314,366.957,453.314z M102.424,77.847     c0-4.713,3.82-8.533,8.533-8.533h25.6c4.713,0,8.533-3.82,8.533-8.533c0-23.564,19.103-42.667,42.667-42.667     s42.667,19.103,42.667,42.667c0,4.713,3.82,8.533,8.533,8.533h25.6c4.713,0,8.533,3.82,8.533,8.533v34.133     c0,4.713-3.821,8.533-8.533,8.533h-153.6c-4.713,0-8.533-3.82-8.533-8.533V77.847z" data-original="#000000" class="active-path" data-old_color="#000000" fill="#9A9B9F"/>
			<path d="M213.357,188.781c0-4.713-3.821-8.533-8.533-8.533H93.89c-4.713,0-8.533,3.82-8.533,8.533s3.821,8.533,8.533,8.533     h110.933C209.536,197.314,213.357,193.493,213.357,188.781z" data-original="#000000" class="active-path" data-old_color="#000000" fill="#9A9B9F"/>
			<path d="M187.757,222.914H93.89c-4.713,0-8.533,3.82-8.533,8.533s3.821,8.533,8.533,8.533h93.867c4.713,0,8.533-3.82,8.533-8.533     S192.47,222.914,187.757,222.914z" data-original="#000000" class="active-path" data-old_color="#000000" fill="#9A9B9F"/>
			<path d="M93.89,282.647h85.333c4.713,0,8.533-3.821,8.533-8.533c0-4.713-3.82-8.533-8.533-8.533H93.89     c-4.713,0-8.533,3.821-8.533,8.533C85.357,278.827,89.177,282.647,93.89,282.647z" data-original="#000000" class="active-path" data-old_color="#000000" fill="#9A9B9F"/>
			<path d="M93.89,325.314h85.333c4.713,0,8.533-3.82,8.533-8.533s-3.82-8.533-8.533-8.533H93.89c-4.713,0-8.533,3.82-8.533,8.533     S89.177,325.314,93.89,325.314z" data-original="#000000" class="active-path" data-old_color="#000000" fill="#9A9B9F"/>
			<path d="M196.29,359.447c0-4.713-3.82-8.533-8.533-8.533H93.89c-4.713,0-8.533,3.82-8.533,8.533s3.821,8.533,8.533,8.533h93.867     C192.47,367.981,196.29,364.16,196.29,359.447z" data-original="#000000" class="active-path" data-old_color="#000000" fill="#9A9B9F"/>
			<path d="M93.89,393.581c-4.713,0-8.533,3.821-8.533,8.533s3.821,8.533,8.533,8.533h25.6c4.713,0,8.533-3.82,8.533-8.533     s-3.82-8.533-8.533-8.533H93.89z" data-original="#000000" class="active-path" data-old_color="#000000" fill="#9A9B9F"/>
			<path d="M510.838,272.621c-0.463-3.352-2.863-6.114-6.118-7.04l-32.427-9.224c-1.703-5.171-3.788-10.208-6.238-15.07     l16.35-29.397c1.645-2.96,1.384-6.614-0.666-9.31c-7.603-9.799-16.407-18.603-26.206-26.206     c-2.693-2.049-6.341-2.313-9.301-0.674l-29.466,16.35c-4.838-2.454-9.856-4.537-15.01-6.229l-9.199-32.401     c-0.931-3.265-3.709-5.668-7.074-6.118c-12.312-1.57-24.774-1.57-37.086,0c-3.365,0.451-6.143,2.853-7.074,6.118l-9.224,32.384     c-5.171,1.702-10.208,3.788-15.07,6.238l-29.397-16.35c-2.96-1.645-6.614-1.384-9.31,0.666     c-9.799,7.603-18.603,16.407-26.206,26.206c-2.049,2.693-2.313,6.341-0.674,9.301l16.35,29.466     c-2.454,4.838-4.537,9.856-6.229,15.01l-32.367,9.242c-3.265,0.931-5.668,3.709-6.118,7.074c-1.581,12.311-1.581,24.774,0,37.086     c0.451,3.365,2.853,6.143,6.118,7.074l32.384,9.224c1.703,5.171,3.788,10.208,6.238,15.07l-16.35,29.397     c-1.648,2.959-1.39,6.612,0.657,9.31c7.609,9.796,16.416,18.6,26.214,26.206c2.693,2.049,6.341,2.313,9.301,0.674l29.466-16.35     c4.838,2.454,9.856,4.537,15.01,6.229l9.242,32.367c0.931,3.265,3.709,5.668,7.074,6.118c12.311,1.581,24.775,1.581,37.086,0     c3.352-0.463,6.114-2.863,7.04-6.118l9.225-32.427c5.171-1.702,10.208-3.788,15.07-6.238l29.397,16.35     c2.96,1.645,6.614,1.384,9.31-0.666c4.912-3.733,9.546-7.817,13.867-12.22c4.447-4.359,8.574-9.033,12.348-13.986     c2.05-2.696,2.311-6.349,0.666-9.31l-16.35-29.457c2.454-4.838,4.537-9.856,6.229-15.01l32.401-9.199     c3.265-0.931,5.668-3.709,6.118-7.074C512.419,297.395,512.419,284.932,510.838,272.621z M494.522,301.958l-0.043,0.017     l-31.343,8.917c-2.861,0.813-5.091,3.057-5.888,5.922c-1.938,7.013-4.735,13.76-8.329,20.087     c-1.47,2.587-1.486,5.752-0.043,8.354l15.829,28.535c-2.276,2.719-4.733,5.367-7.373,7.945c-2.492,2.543-5.097,4.961-7.817,7.253     l-28.45-15.821c-2.585-1.444-5.734-1.444-8.32,0c-6.372,3.579-13.151,6.381-20.19,8.346c-2.865,0.797-5.109,3.027-5.922,5.888     l-8.917,31.343c-7.173,0.58-14.382,0.58-21.555,0l-8.917-31.343c-0.813-2.861-3.057-5.091-5.922-5.888     c-7.013-1.938-13.76-4.735-20.087-8.329c-2.587-1.47-5.752-1.486-8.354-0.043l-28.518,15.829     c-2.731-2.276-5.379-4.733-7.945-7.373c-2.56-2.492-4.966-5.12-7.253-7.825l15.821-28.442c1.444-2.586,1.444-5.735,0-8.32     c-3.588-6.385-6.396-13.178-8.363-20.233c-0.797-2.865-3.028-5.109-5.888-5.922l-31.343-8.917     c-0.29-3.465-0.435-7.066-0.435-10.761c0-3.695,0.145-7.296,0.435-10.778l31.343-8.917c2.86-0.813,5.091-3.057,5.888-5.922     c1.938-7.013,4.735-13.76,8.329-20.087c1.47-2.587,1.486-5.752,0.043-8.354l-15.829-28.536c2.276-2.731,4.733-5.379,7.373-7.945     c2.492-2.543,5.097-4.961,7.817-7.253l28.45,15.821c2.585,1.444,5.734,1.444,8.32,0c6.385-3.588,13.178-6.396,20.233-8.363     c2.865-0.797,5.109-3.028,5.922-5.888l8.917-31.343c7.173-0.58,14.382-0.58,21.555,0l8.917,31.343     c0.813,2.86,3.057,5.091,5.922,5.888c7.013,1.938,13.76,4.735,20.087,8.328c2.597,1.446,5.757,1.446,8.354,0l28.535-15.829     c2.731,2.276,5.379,4.733,7.945,7.373c2.543,2.492,4.961,5.097,7.253,7.817l-15.821,28.45c-1.444,2.585-1.444,5.734,0,8.32     c3.585,6.399,6.387,13.206,8.346,20.275c0.797,2.865,3.028,5.109,5.888,5.922l31.343,8.917c0.29,3.482,0.435,7.083,0.435,10.778     C494.957,294.893,494.812,298.477,494.522,301.958z" data-original="#000000" class="active-path" data-old_color="#000000" fill="#9A9B9F"/>
			<path d="M366.957,222.914c-32.568,0.001-60.6,23.008-66.953,54.951s10.743,63.925,40.833,76.387     c30.089,12.462,64.792,1.934,82.885-25.146c18.093-27.08,14.538-63.17-8.492-86.198     C402.455,230.064,385.072,222.864,366.957,222.914z M403.164,327.388c-17.27,17.273-44.337,19.942-64.648,6.373     s-28.209-39.595-18.863-62.162c9.345-22.568,33.33-35.391,57.288-30.629s41.214,25.785,41.217,50.211     C418.194,304.767,412.795,317.804,403.164,327.388z" data-original="#000000" class="active-path" data-old_color="#000000" fill="#9A9B9F"/>
			<path d="M366.957,257.047c-16.284,0.001-30.299,11.503-33.476,27.474c-3.177,15.971,5.37,31.961,20.413,38.194     c15.044,6.232,32.395,0.97,41.443-12.568c9.048-13.538,7.273-31.583-4.239-43.099     C384.739,260.58,376.027,256.971,366.957,257.047z M379.023,303.247c-6.676,6.634-17.456,6.634-24.132,0     c-4.882-4.881-6.343-12.222-3.702-18.6c2.641-6.378,8.865-10.537,15.768-10.537c6.903,0,13.127,4.159,15.768,10.537     C385.366,291.025,383.905,298.366,379.023,303.247z" data-original="#000000" class="active-path" data-old_color="#000000" fill="#9A9B9F"/>
		</g>
	</g>
</g></g> </svg>
